<?xml version="1.0" encoding="UTF-8" standalone="no"?>
<svg
   width="16"
   height="16"
   fill="currentColor"
   class="bi bi-layers"
   viewBox="0 0 16 16"
   version="1.1"
   id="svg4"
   sodipodi:docname="xopp-combo-layer.svg"
   inkscape:version="1.1.1 (3bf5ae0d25, 2021-09-20, custom)"
   xmlns:inkscape="http://www.inkscape.org/namespaces/inkscape"
   xmlns:sodipodi="http://sodipodi.sourceforge.net/DTD/sodipodi-0.dtd"
   xmlns="http://www.w3.org/2000/svg"
   xmlns:svg="http://www.w3.org/2000/svg">
  <defs
     id="defs8" />
  <sodipodi:namedview
     id="namedview6"
     pagecolor="#ffffff"
     bordercolor="#666666"
     borderopacity="1.0"
     inkscape:pageshadow="2"
     inkscape:pageopacity="0.0"
     inkscape:pagecheckerboard="0"
     showgrid="false"
     inkscape:zoom="39.375"
     inkscape:cx="8"
     inkscape:cy="8"
     inkscape:window-width="1920"
     inkscape:window-height="1000"
     inkscape:window-x="0"
     inkscape:window-y="20"
     inkscape:window-maximized="1"
     inkscape:current-layer="svg4" />
  <path
     d="m 8.1766275,3.1691744 a 0.37500588,0.37500588 0 0 0 -0.3525054,0 L 2.1990342,6.1692212 a 0.37500588,0.37500588 0 0 0 0,0.6615104 L 4.3913185,7.9999998 2.1982842,9.1692686 a 0.37500588,0.37500588 0 0 0 0,0.66151 l 5.6250879,3.0000474 a 0.37500588,0.37500588 0 0 0 0.3525054,0 L 13.800965,9.8307786 a 0.37500588,0.37500588 0 0 0 0,-0.66151 L 11.61018,7.9999998 13.801715,6.8307316 a 0.37500588,0.37500588 0 0 0 0,-0.6615104 z M 10.812918,8.4252565 12.82895,9.5000235 8.0003755,12.074814 3.1717994,9.5000235 5.187831,8.4252565 7.8241221,9.8307785 a 0.37500588,0.37500588 0 0 0 0.3525054,0 z M 8.0003755,9.0747666 3.1717994,6.4999763 8.0003755,3.9251861 12.82895,6.4999763 Z"
     id="path2"
     style="stroke-width:1" />
</svg>
