<?xml version="1.0" encoding="UTF-8" standalone="no"?>
<svg
   width="16"
   height="16"
   fill="currentColor"
   class="bi bi-circle-square"
   viewBox="0 0 16 16"
   version="1.1"
   id="svg6"
   sodipodi:docname="xopp-combo-drawing-type.svg"
   inkscape:version="1.1.1 (3bf5ae0d25, 2021-09-20, custom)"
   xmlns:inkscape="http://www.inkscape.org/namespaces/inkscape"
   xmlns:sodipodi="http://sodipodi.sourceforge.net/DTD/sodipodi-0.dtd"
   xmlns="http://www.w3.org/2000/svg"
   xmlns:svg="http://www.w3.org/2000/svg">
  <defs
     id="defs10" />
  <sodipodi:namedview
     id="namedview8"
     pagecolor="#ffffff"
     bordercolor="#666666"
     borderopacity="1.0"
     inkscape:pageshadow="2"
     inkscape:pageopacity="0.0"
     inkscape:pagecheckerboard="0"
     showgrid="false"
     inkscape:zoom="39.375"
     inkscape:cx="8"
     inkscape:cy="8"
     inkscape:window-width="1920"
     inkscape:window-height="1000"
     inkscape:window-x="0"
     inkscape:window-y="20"
     inkscape:window-maximized="1"
     inkscape:current-layer="svg6" />
  <g
     id="g829"
     transform="matrix(0.75,0,0,0.75,2,2)"
     style="stroke-width:1.33333">
    <path
       d="M 0,6 A 6,6 0 1 1 12,6 6,6 0 0 1 0,6 Z"
       id="path2"
       style="stroke-width:1.33333" />
    <path
       d="M 12.93,5 H 14.5 A 0.5,0.5 0 0 1 15,5.5 v 9 A 0.5,0.5 0 0 1 14.5,15 h -9 A 0.5,0.5 0 0 1 5,14.5 V 12.93 A 6.953,6.953 0 0 1 4,12.71 V 14.5 A 1.5,1.5 0 0 0 5.5,16 h 9 A 1.5,1.5 0 0 0 16,14.5 v -9 A 1.5,1.5 0 0 0 14.5,4 h -1.79 c 0.097,0.324 0.17,0.658 0.22,1 z"
       id="path4"
       style="stroke-width:1.33333" />
  </g>
</svg>
