<?xml version="1.0" encoding="UTF-8" standalone="no"?>
<svg
   width="16"
   height="16"
   fill="currentColor"
   class="bi bi-layers-half"
   viewBox="0 0 16 16"
   version="1.1"
   id="svg4"
   sodipodi:docname="xopp-sidebar-layerstack.svg"
   inkscape:version="1.1.1 (3bf5ae0d25, 2021-09-20, custom)"
   xmlns:inkscape="http://www.inkscape.org/namespaces/inkscape"
   xmlns:sodipodi="http://sodipodi.sourceforge.net/DTD/sodipodi-0.dtd"
   xmlns="http://www.w3.org/2000/svg"
   xmlns:svg="http://www.w3.org/2000/svg">
  <defs
     id="defs8" />
  <sodipodi:namedview
     id="namedview6"
     pagecolor="#ffffff"
     bordercolor="#666666"
     borderopacity="1.0"
     inkscape:pageshadow="2"
     inkscape:pageopacity="0.0"
     inkscape:pagecheckerboard="0"
     showgrid="false"
     inkscape:zoom="8"
     inkscape:cx="44.125"
     inkscape:cy="13.125"
     inkscape:window-width="1920"
     inkscape:window-height="1000"
     inkscape:window-x="0"
     inkscape:window-y="20"
     inkscape:window-maximized="1"
     inkscape:current-layer="svg4" />
  <path
     id="path2"
     d="m 8,1.5 c -0.08174,7.98e-5 -0.1622139,0.020198 -0.234375,0.058594 l -7.5,4 c -0.35351617,0.1880985 -0.35351617,0.6947139 0,0.8828124 L 3.1875,8 0.26367188,9.5585938 c -0.35351592,0.1880985 -0.35351592,0.6947132 0,0.8828122 l 7.50000002,4 c 0.1470893,0.07847 0.3236138,0.07847 0.4707031,0 l 7.5,-4 c 0.353516,-0.188099 0.353516,-0.6947137 0,-0.8828122 L 12.8125,8 15.734375,6.4414062 c 0.353516,-0.1880985 0.353516,-0.6947139 0,-0.8828124 l -7.5,-4 C 8.1622139,1.5201983 8.08174,1.5000798 8,1.5 Z m 0,0.7207031 c 0.1800911,0 0.3601821,0.068823 0.4960938,0.2050781 L 9.3652344,3.2949219 14.4375,6 8.6992188,9.0605469 v 3.8613281 c 0,0.216666 -0.08767,0.405403 -0.2226563,0.525391 C 8.3415763,13.567253 8.1694443,13.621094 8,13.621094 c -0.1694443,0 -0.3415763,-0.05384 -0.4765625,-0.173828 C 7.3884513,13.327278 7.3007812,13.138541 7.3007812,12.921875 V 9.0605469 L 1.5625,6 6.6347656,3.2949219 7.5039062,2.4257812 C 7.6398178,2.2895259 7.8199089,2.2207031 8,2.2207031 Z"
     sodipodi:nodetypes="ccccccccccccccccsccccsssssccccs" />
  <g
     id="g833"
     transform="matrix(1,0,0,-1.1824395,0.046375,21.127467)"
     style="fill:#000000;fill-opacity:1;stroke:#fdfdfd;stroke-width:0.4;stroke-miterlimit:4;stroke-dasharray:none;stroke-opacity:1">
    <g
       id="path4"
       style="fill:#000000;fill-opacity:1;stroke:none;stroke-width:0;stroke-miterlimit:4;stroke-dasharray:none">
      <path
         style="color:#000000;fill:#000000;fill-opacity:1;stroke:none;stroke-width:0;stroke-miterlimit:4;stroke-dasharray:none"
         d="m 7.6777663,15.434389 a 0.40117582,0.40117582 0 0 0 0.568065,0 L 10.652886,13.027334 A 0.40168268,0.40168268 0 0 0 10.084821,12.459269 L 8.3629746,14.181918 V 7.1268398 a 0.40117582,0.40117582 0 0 0 -0.8023516,0 V 14.181918 L 5.8387764,12.459269 a 0.40168268,0.40168268 0 0 0 -0.568065,0.568065 z"
         id="path1375" />
    </g>
  </g>
</svg>
